<mxfile host="Electron" modified="2024-03-26T13:46:14.208Z" agent="Mozilla/5.0 (Macintosh; Intel Mac OS X 10_15_7) AppleWebKit/537.36 (KHTML, like Gecko) draw.io/24.1.0 Chrome/120.0.6099.109 Electron/28.1.0 Safari/537.36" etag="GhggTIF1FOCMtKr24Xho" version="24.1.0" type="device">
  <diagram id="C5RBs43oDa-KdzZeNtuy" name="Page-1">
    <mxGraphModel dx="1026" dy="743" grid="1" gridSize="10" guides="1" tooltips="1" connect="1" arrows="1" fold="1" page="1" pageScale="1" pageWidth="827" pageHeight="1169" math="0" shadow="0">
      <root>
        <mxCell id="WIyWlLk6GJQsqaUBKTNV-0" />
        <mxCell id="WIyWlLk6GJQsqaUBKTNV-1" parent="WIyWlLk6GJQsqaUBKTNV-0" />
        <mxCell id="zkfFHV4jXpPFQw0GAbJ--17" value="RemoteLoader" style="swimlane;fontStyle=0;align=center;verticalAlign=top;childLayout=stackLayout;horizontal=1;startSize=26;horizontalStack=0;resizeParent=1;resizeLast=0;collapsible=1;marginBottom=0;rounded=0;shadow=0;strokeWidth=1;" parent="WIyWlLk6GJQsqaUBKTNV-1" vertex="1">
          <mxGeometry x="10" y="110" width="190" height="80" as="geometry">
            <mxRectangle x="550" y="140" width="160" height="26" as="alternateBounds" />
          </mxGeometry>
        </mxCell>
        <mxCell id="zkfFHV4jXpPFQw0GAbJ--18" value="Light light&#xa;LightOnCommand onCommand&#xa;..." style="text;align=left;verticalAlign=top;spacingLeft=4;spacingRight=4;overflow=hidden;rotatable=0;points=[[0,0.5],[1,0.5]];portConstraint=eastwest;" parent="zkfFHV4jXpPFQw0GAbJ--17" vertex="1">
          <mxGeometry y="26" width="190" height="44" as="geometry" />
        </mxCell>
        <mxCell id="fW-OKME4cMu8twGoqjDy-0" value="Light" style="swimlane;fontStyle=0;childLayout=stackLayout;horizontal=1;startSize=26;fillColor=none;horizontalStack=0;resizeParent=1;resizeParentMax=0;resizeLast=0;collapsible=1;marginBottom=0;whiteSpace=wrap;html=1;" vertex="1" parent="WIyWlLk6GJQsqaUBKTNV-1">
          <mxGeometry x="300" y="210" width="140" height="70" as="geometry" />
        </mxCell>
        <mxCell id="fW-OKME4cMu8twGoqjDy-1" value="on()&lt;div&gt;off()&lt;/div&gt;" style="text;strokeColor=none;fillColor=none;align=left;verticalAlign=top;spacingLeft=4;spacingRight=4;overflow=hidden;rotatable=0;points=[[0,0.5],[1,0.5]];portConstraint=eastwest;whiteSpace=wrap;html=1;" vertex="1" parent="fW-OKME4cMu8twGoqjDy-0">
          <mxGeometry y="26" width="140" height="44" as="geometry" />
        </mxCell>
        <mxCell id="fW-OKME4cMu8twGoqjDy-4" value="&lt;span style=&quot;text-align: left; text-wrap: nowrap;&quot;&gt;LightOnCommand&lt;/span&gt;" style="swimlane;fontStyle=0;childLayout=stackLayout;horizontal=1;startSize=26;fillColor=none;horizontalStack=0;resizeParent=1;resizeParentMax=0;resizeLast=0;collapsible=1;marginBottom=0;whiteSpace=wrap;html=1;" vertex="1" parent="WIyWlLk6GJQsqaUBKTNV-1">
          <mxGeometry x="530" y="290" width="140" height="52" as="geometry" />
        </mxCell>
        <mxCell id="fW-OKME4cMu8twGoqjDy-5" value="execute() {...}" style="text;strokeColor=none;fillColor=none;align=left;verticalAlign=top;spacingLeft=4;spacingRight=4;overflow=hidden;rotatable=0;points=[[0,0.5],[1,0.5]];portConstraint=eastwest;whiteSpace=wrap;html=1;" vertex="1" parent="fW-OKME4cMu8twGoqjDy-4">
          <mxGeometry y="26" width="140" height="26" as="geometry" />
        </mxCell>
        <mxCell id="fW-OKME4cMu8twGoqjDy-8" value="&lt;span style=&quot;text-align: left; text-wrap: nowrap;&quot;&gt;LightOff&lt;/span&gt;&lt;span style=&quot;text-align: left; text-wrap: nowrap; background-color: initial;&quot;&gt;Command&lt;/span&gt;" style="swimlane;fontStyle=0;childLayout=stackLayout;horizontal=1;startSize=26;fillColor=none;horizontalStack=0;resizeParent=1;resizeParentMax=0;resizeLast=0;collapsible=1;marginBottom=0;whiteSpace=wrap;html=1;" vertex="1" parent="WIyWlLk6GJQsqaUBKTNV-1">
          <mxGeometry x="560" y="360" width="140" height="52" as="geometry" />
        </mxCell>
        <mxCell id="fW-OKME4cMu8twGoqjDy-9" value="execute() {...}" style="text;strokeColor=none;fillColor=none;align=left;verticalAlign=top;spacingLeft=4;spacingRight=4;overflow=hidden;rotatable=0;points=[[0,0.5],[1,0.5]];portConstraint=eastwest;whiteSpace=wrap;html=1;" vertex="1" parent="fW-OKME4cMu8twGoqjDy-8">
          <mxGeometry y="26" width="140" height="26" as="geometry" />
        </mxCell>
        <mxCell id="fW-OKME4cMu8twGoqjDy-10" value="Use" style="endArrow=open;endSize=12;dashed=1;html=1;rounded=1;entryX=0;entryY=0.25;entryDx=0;entryDy=0;curved=0;" edge="1" parent="WIyWlLk6GJQsqaUBKTNV-1" target="fW-OKME4cMu8twGoqjDy-0">
          <mxGeometry width="160" relative="1" as="geometry">
            <mxPoint x="120" y="190" as="sourcePoint" />
            <mxPoint x="280" y="230" as="targetPoint" />
            <Array as="points">
              <mxPoint x="120" y="228" />
            </Array>
            <mxPoint as="offset" />
          </mxGeometry>
        </mxCell>
        <mxCell id="fW-OKME4cMu8twGoqjDy-11" value="Use" style="endArrow=open;endSize=12;dashed=1;html=1;rounded=1;entryX=-0.036;entryY=0.154;entryDx=0;entryDy=0;entryPerimeter=0;curved=0;" edge="1" parent="WIyWlLk6GJQsqaUBKTNV-1" target="fW-OKME4cMu8twGoqjDy-5">
          <mxGeometry width="160" relative="1" as="geometry">
            <mxPoint x="80" y="190" as="sourcePoint" />
            <mxPoint x="420" y="320" as="targetPoint" />
            <Array as="points">
              <mxPoint x="80" y="320" />
            </Array>
            <mxPoint as="offset" />
          </mxGeometry>
        </mxCell>
        <mxCell id="fW-OKME4cMu8twGoqjDy-12" value="Use" style="endArrow=open;endSize=12;dashed=1;html=1;rounded=1;entryX=0;entryY=0.5;entryDx=0;entryDy=0;curved=0;" edge="1" parent="WIyWlLk6GJQsqaUBKTNV-1" target="fW-OKME4cMu8twGoqjDy-8">
          <mxGeometry width="160" relative="1" as="geometry">
            <mxPoint x="40" y="190" as="sourcePoint" />
            <mxPoint x="470" y="385.5" as="targetPoint" />
            <Array as="points">
              <mxPoint x="40" y="386" />
            </Array>
          </mxGeometry>
        </mxCell>
        <mxCell id="fW-OKME4cMu8twGoqjDy-13" value="" style="endArrow=open;endFill=1;endSize=12;html=1;rounded=1;exitX=0.25;exitY=0;exitDx=0;exitDy=0;entryX=1;entryY=0.5;entryDx=0;entryDy=0;curved=0;" edge="1" parent="WIyWlLk6GJQsqaUBKTNV-1" source="fW-OKME4cMu8twGoqjDy-4" target="fW-OKME4cMu8twGoqjDy-1">
          <mxGeometry width="160" relative="1" as="geometry">
            <mxPoint x="500" y="200" as="sourcePoint" />
            <mxPoint x="660" y="200" as="targetPoint" />
            <Array as="points">
              <mxPoint x="565" y="258" />
            </Array>
          </mxGeometry>
        </mxCell>
        <mxCell id="fW-OKME4cMu8twGoqjDy-14" value="light.on()" style="edgeLabel;html=1;align=center;verticalAlign=middle;resizable=0;points=[];" vertex="1" connectable="0" parent="fW-OKME4cMu8twGoqjDy-13">
          <mxGeometry x="0.2611" y="1" relative="1" as="geometry">
            <mxPoint as="offset" />
          </mxGeometry>
        </mxCell>
        <mxCell id="fW-OKME4cMu8twGoqjDy-15" value="" style="endArrow=open;endFill=1;endSize=12;html=1;rounded=1;exitX=0.893;exitY=-0.058;exitDx=0;exitDy=0;entryX=1;entryY=0.25;entryDx=0;entryDy=0;exitPerimeter=0;curved=0;" edge="1" parent="WIyWlLk6GJQsqaUBKTNV-1" source="fW-OKME4cMu8twGoqjDy-8" target="fW-OKME4cMu8twGoqjDy-0">
          <mxGeometry width="160" relative="1" as="geometry">
            <mxPoint x="685" y="261" as="sourcePoint" />
            <mxPoint x="560" y="229" as="targetPoint" />
            <Array as="points">
              <mxPoint x="685" y="229" />
            </Array>
          </mxGeometry>
        </mxCell>
        <mxCell id="fW-OKME4cMu8twGoqjDy-16" value="light.off()" style="edgeLabel;html=1;align=center;verticalAlign=middle;resizable=0;points=[];" vertex="1" connectable="0" parent="fW-OKME4cMu8twGoqjDy-15">
          <mxGeometry x="0.2611" y="1" relative="1" as="geometry">
            <mxPoint as="offset" />
          </mxGeometry>
        </mxCell>
        <mxCell id="fW-OKME4cMu8twGoqjDy-17" value="RemoteControl" style="swimlane;fontStyle=1;align=center;verticalAlign=top;childLayout=stackLayout;horizontal=1;startSize=26;horizontalStack=0;resizeParent=1;resizeParentMax=0;resizeLast=0;collapsible=1;marginBottom=0;whiteSpace=wrap;html=1;" vertex="1" parent="WIyWlLk6GJQsqaUBKTNV-1">
          <mxGeometry x="290" y="40" width="160" height="130" as="geometry" />
        </mxCell>
        <mxCell id="fW-OKME4cMu8twGoqjDy-18" value="Command[] onCommands&lt;div&gt;Command[] offCommands&lt;br&gt;&lt;/div&gt;" style="text;strokeColor=none;fillColor=none;align=left;verticalAlign=top;spacingLeft=4;spacingRight=4;overflow=hidden;rotatable=0;points=[[0,0.5],[1,0.5]];portConstraint=eastwest;whiteSpace=wrap;html=1;" vertex="1" parent="fW-OKME4cMu8twGoqjDy-17">
          <mxGeometry y="26" width="160" height="44" as="geometry" />
        </mxCell>
        <mxCell id="fW-OKME4cMu8twGoqjDy-19" value="" style="line;strokeWidth=1;fillColor=none;align=left;verticalAlign=middle;spacingTop=-1;spacingLeft=3;spacingRight=3;rotatable=0;labelPosition=right;points=[];portConstraint=eastwest;strokeColor=inherit;" vertex="1" parent="fW-OKME4cMu8twGoqjDy-17">
          <mxGeometry y="70" width="160" height="8" as="geometry" />
        </mxCell>
        <mxCell id="fW-OKME4cMu8twGoqjDy-20" value="setCommand()&lt;div&gt;onButtonWasPushed()&lt;/div&gt;&lt;div&gt;offButtonWasPushed()&lt;br&gt;&lt;/div&gt;" style="text;strokeColor=none;fillColor=none;align=left;verticalAlign=top;spacingLeft=4;spacingRight=4;overflow=hidden;rotatable=0;points=[[0,0.5],[1,0.5]];portConstraint=eastwest;whiteSpace=wrap;html=1;" vertex="1" parent="fW-OKME4cMu8twGoqjDy-17">
          <mxGeometry y="78" width="160" height="52" as="geometry" />
        </mxCell>
        <mxCell id="fW-OKME4cMu8twGoqjDy-21" value="&lt;p style=&quot;margin:0px;margin-top:4px;text-align:center;&quot;&gt;&lt;i&gt;&amp;lt;&amp;lt;Interface&amp;gt;&amp;gt;&lt;/i&gt;&lt;br&gt;&lt;b&gt;Command&lt;/b&gt;&lt;/p&gt;&lt;hr size=&quot;1&quot; style=&quot;border-style:solid;&quot;&gt;&lt;p style=&quot;margin:0px;margin-left:4px;&quot;&gt;execute()&lt;/p&gt;" style="verticalAlign=top;align=left;overflow=fill;html=1;whiteSpace=wrap;" vertex="1" parent="WIyWlLk6GJQsqaUBKTNV-1">
          <mxGeometry x="580" y="50" width="135" height="70" as="geometry" />
        </mxCell>
        <mxCell id="fW-OKME4cMu8twGoqjDy-22" value="" style="endArrow=block;dashed=1;endFill=0;endSize=12;html=1;rounded=1;entryX=0.141;entryY=1.014;entryDx=0;entryDy=0;entryPerimeter=0;exitX=0.5;exitY=0;exitDx=0;exitDy=0;curved=0;" edge="1" parent="WIyWlLk6GJQsqaUBKTNV-1" source="fW-OKME4cMu8twGoqjDy-4" target="fW-OKME4cMu8twGoqjDy-21">
          <mxGeometry width="160" relative="1" as="geometry">
            <mxPoint x="600" y="170" as="sourcePoint" />
            <mxPoint x="760" y="170" as="targetPoint" />
          </mxGeometry>
        </mxCell>
        <mxCell id="fW-OKME4cMu8twGoqjDy-23" value="" style="endArrow=block;dashed=1;endFill=0;endSize=12;html=1;rounded=0;entryX=0.881;entryY=1.014;entryDx=0;entryDy=0;entryPerimeter=0;exitX=1;exitY=0;exitDx=0;exitDy=0;" edge="1" parent="WIyWlLk6GJQsqaUBKTNV-1" source="fW-OKME4cMu8twGoqjDy-8" target="fW-OKME4cMu8twGoqjDy-21">
          <mxGeometry width="160" relative="1" as="geometry">
            <mxPoint x="700" y="180" as="sourcePoint" />
            <mxPoint x="770" y="180" as="targetPoint" />
          </mxGeometry>
        </mxCell>
        <mxCell id="fW-OKME4cMu8twGoqjDy-24" value="" style="endArrow=open;endFill=1;endSize=12;html=1;rounded=0;entryX=0;entryY=0.25;entryDx=0;entryDy=0;exitX=0.994;exitY=0.023;exitDx=0;exitDy=0;exitPerimeter=0;" edge="1" parent="WIyWlLk6GJQsqaUBKTNV-1" source="fW-OKME4cMu8twGoqjDy-18" target="fW-OKME4cMu8twGoqjDy-21">
          <mxGeometry width="160" relative="1" as="geometry">
            <mxPoint x="480" y="70" as="sourcePoint" />
            <mxPoint x="550" y="70" as="targetPoint" />
          </mxGeometry>
        </mxCell>
      </root>
    </mxGraphModel>
  </diagram>
</mxfile>
